<?xml version="1.0" encoding="UTF-8" standalone="no"?>
<svg width="506px" height="506px" viewBox="0 0 506 506" version="1.1" xmlns="http://www.w3.org/2000/svg" xmlns:xlink="http://www.w3.org/1999/xlink" xmlns:sketch="http://www.bohemiancoding.com/sketch/ns">
    <!-- Generator: Sketch 3.4 (15575) - http://www.bohemiancoding.com/sketch -->
    <title>Rectangle 1 + BRANDED + Rectangle 2</title>
    <desc>Created with Sketch.</desc>
    <defs></defs>
    <g id="Page-1" stroke="none" stroke-width="1" fill="none" fill-rule="evenodd" sketch:type="MSPage">
        <g id="1024" sketch:type="MSArtboardGroup" transform="translate(-259.000000, -259.000000)">
            <g id="Rectangle-1-+-BRANDED-+-Rectangle-2" sketch:type="MSLayerGroup" transform="translate(259.000000, 259.000000)">
                <rect id="Rectangle-1" fill="#FD6366" sketch:type="MSShapeGroup" x="0" y="0" width="506" height="506"></rect>
                <path d="M191.396643,181.395508 L191.396643,193.297363 L204.653478,193.297363 C207.021654,193.297363 208.944243,192.851811 210.421301,191.960693 C211.898359,191.069576 212.636877,189.488781 212.636877,187.218262 C212.636877,184.703601 211.660324,183.043461 209.707189,182.237793 C208.022611,181.676267 205.874195,181.395508 203.261877,181.395508 L191.396643,181.395508 Z M191.396643,202.23291 L191.396643,216.625 L204.653478,216.625 C207.021654,216.625 208.864898,216.30762 210.183264,215.672852 C212.575854,214.500971 213.772131,212.254899 213.772131,208.93457 C213.772131,206.126939 212.612474,204.198247 210.293127,203.148438 C208.999175,202.562497 207.180346,202.257324 204.836584,202.23291 L191.396643,202.23291 Z M220.913244,177.77002 C222.573409,180.064953 223.403478,182.811507 223.403478,186.009766 C223.403478,189.305681 222.573409,191.95458 220.913244,193.956543 C219.985505,195.079595 218.618331,196.104976 216.811682,197.032715 C219.570484,198.033696 221.651762,199.620595 223.055578,201.793457 C224.459394,203.966319 225.161291,206.603012 225.161291,209.703613 C225.161291,212.901871 224.355635,215.770495 222.744299,218.30957 C221.718903,219.994149 220.437178,221.410151 218.899084,222.557617 C217.165677,223.875983 215.12102,224.779294 212.765051,225.267578 C210.409082,225.755862 207.851734,226 205.092932,226 L180.630041,226 L180.630041,172.020508 L206.850744,172.020508 C213.466988,172.118165 218.154441,174.034649 220.913244,177.77002 L220.913244,177.77002 Z M247.38254,205.602051 L261.078829,205.602051 L254.340548,184.361816 L247.38254,205.602051 Z M248.07834,172.020508 L260.822481,172.020508 L279.938692,226 L267.707247,226 L264.228243,214.903809 L244.342989,214.903809 L240.607637,226 L228.815645,226 L248.07834,172.020508 Z M296.080839,181.395508 L296.080839,195.897461 L308.861601,195.897461 C311.400676,195.897461 313.304954,195.604495 314.574492,195.018555 C316.820597,193.993159 317.943632,191.966812 317.943632,188.939453 C317.943632,185.667952 316.857217,183.470709 314.684355,182.347656 C313.463646,181.712887 311.632609,181.395508 309.191191,181.395508 L296.080839,181.395508 Z M320.269072,173.412109 C322.307656,174.266606 324.034934,175.523917 325.450956,177.184082 C326.622837,178.551276 327.550562,180.064933 328.23416,181.725098 C328.917757,183.385262 329.25955,185.277333 329.25955,187.401367 C329.25955,189.964857 328.612584,192.485583 327.318632,194.963623 C326.02468,197.441663 323.888471,199.193354 320.909941,200.21875 C323.400188,201.219732 325.164086,202.641836 326.201689,204.485107 C327.239292,206.328378 327.758085,209.142071 327.758085,212.92627 L327.758085,216.551758 C327.758085,219.01759 327.855741,220.689937 328.051054,221.568848 C328.344024,222.960456 329.027611,223.985837 330.101835,224.64502 L330.101835,226 L317.687285,226 C317.345486,224.803705 317.101348,223.839359 316.954863,223.106934 C316.661892,221.593254 316.503203,220.042977 316.478788,218.456055 L316.405546,213.438965 C316.356718,209.996565 315.728062,207.701666 314.51956,206.554199 C313.311058,205.406733 311.046676,204.833008 307.726347,204.833008 L296.080839,204.833008 L296.080839,226 L285.05789,226 L285.05789,172.020508 L311.534941,172.020508 C315.319139,172.09375 318.230487,172.557613 320.269072,173.412109 L320.269072,173.412109 Z M89.3530421,291.337402 C89.6948407,293.803235 90.3662207,295.646478 91.3672023,296.867188 C93.1982661,299.088878 96.3354418,300.199707 100.778823,300.199707 C103.439969,300.199707 105.600592,299.906741 107.260757,299.320801 C110.410187,298.197748 111.984878,296.110367 111.984878,293.058594 C111.984878,291.276358 111.203636,289.896978 109.641128,288.92041 C108.07862,287.968257 105.625032,287.12598 102.280288,286.393555 L96.5673976,285.111816 C90.9521351,283.842279 87.070338,282.462898 84.9218898,280.973633 C81.2841763,278.483386 79.4653468,274.589382 79.4653468,269.291504 C79.4653468,264.457495 81.2231417,260.441422 84.7387843,257.243164 C88.2544269,254.044906 93.4179495,252.445801 100.229507,252.445801 C105.918012,252.445801 110.770258,253.953354 114.786392,256.968506 C118.802525,259.983658 120.908217,264.359835 121.10353,270.097168 L110.263687,270.097168 C110.068373,266.850081 108.652372,264.542976 106.01564,263.175781 C104.257818,262.272456 102.072782,261.820801 99.460464,261.820801 C96.555176,261.820801 94.2358633,262.406732 92.5024562,263.578613 C90.7690491,264.750494 89.9023585,266.38622 89.9023585,268.48584 C89.9023585,270.41456 90.7568422,271.854976 92.4658351,272.807129 C93.5644734,273.441898 95.9082,274.186519 99.4970851,275.041016 L108.798843,277.274902 C112.876012,278.25147 115.952153,279.557609 118.027359,281.193359 C121.250031,283.732435 122.861343,287.406714 122.861343,292.216309 C122.861343,297.147974 120.975375,301.243392 117.203384,304.502686 C113.431392,307.761979 108.103077,309.391602 101.218277,309.391602 C94.1869913,309.391602 88.6572615,307.786393 84.628921,304.575928 C80.6005806,301.365462 78.5864406,296.952665 78.5864406,291.337402 L89.3530421,291.337402 Z M129.225658,254.020508 L140.68806,254.020508 L140.68806,287.199219 C140.68806,290.910175 141.127509,293.620109 142.00642,295.329102 C143.373614,298.35646 146.3521,299.870117 150.941967,299.870117 C155.507419,299.870117 158.473698,298.35646 159.840892,295.329102 C160.719803,293.620109 161.159252,290.910175 161.159252,287.199219 L161.159252,254.020508 L172.621654,254.020508 L172.621654,287.199219 C172.621654,292.936552 171.73055,297.404281 169.948314,300.602539 C166.627985,306.461943 160.292599,309.391602 150.941967,309.391602 C141.591334,309.391602 135.243741,306.461943 131.898998,300.602539 C130.116762,297.404281 129.225658,292.936552 129.225658,287.199219 L129.225658,254.020508 Z M209.582893,265.189941 C208.105835,263.993646 206.036764,263.395508 203.375618,263.395508 L192.865364,263.395508 L192.865364,279.289062 L203.375618,279.289062 C206.036764,279.289062 208.105835,278.642096 209.582893,277.348145 C211.059951,276.054193 211.798469,274.003432 211.798469,271.195801 C211.798469,268.38817 211.059951,266.386236 209.582893,265.189941 L209.582893,265.189941 Z M218.133919,284.635742 C214.911246,287.272474 210.309241,288.59082 204.327766,288.59082 L192.865364,288.59082 L192.865364,308 L181.659309,308 L181.659309,254.020508 L205.170051,254.020508 C210.59,254.020508 214.911246,255.412095 218.133919,258.195312 C221.356591,260.97853 222.967903,265.287568 222.967903,271.122559 C222.967903,277.494661 221.356591,281.99901 218.133919,284.635742 L218.133919,284.635742 Z M257.622013,265.189941 C256.144955,263.993646 254.075884,263.395508 251.414738,263.395508 L240.904484,263.395508 L240.904484,279.289062 L251.414738,279.289062 C254.075884,279.289062 256.144955,278.642096 257.622013,277.348145 C259.099071,276.054193 259.837589,274.003432 259.837589,271.195801 C259.837589,268.38817 259.099071,266.386236 257.622013,265.189941 L257.622013,265.189941 Z M266.173038,284.635742 C262.950366,287.272474 258.348361,288.59082 252.366886,288.59082 L240.904484,288.59082 L240.904484,308 L229.698429,308 L229.698429,254.020508 L253.209171,254.020508 C258.62912,254.020508 262.950366,255.412095 266.173038,258.195312 C269.395711,260.97853 271.007023,265.287568 271.007023,271.122559 C271.007023,277.494661 269.395711,281.99901 266.173038,284.635742 L266.173038,284.635742 Z M277.481201,254.020508 L288.760498,254.020508 L288.760498,298.29541 L315.493896,298.29541 L315.493896,308 L277.481201,308 L277.481201,254.020508 Z M331.636044,308 L320.429989,308 L320.429989,254.020508 L331.636044,254.020508 L331.636044,308 Z M380.077996,263.578613 L351.513542,263.578613 L351.513542,275.041016 L377.734246,275.041016 L377.734246,284.416016 L351.513542,284.416016 L351.513542,298.29541 L381.396355,298.29541 L381.396355,308 L340.490593,308 L340.490593,254.020508 L380.077996,254.020508 L380.077996,263.578613 Z M396.366627,291.337402 C396.708426,293.803235 397.379806,295.646478 398.380787,296.867188 C400.211851,299.088878 403.349027,300.199707 407.792408,300.199707 C410.453554,300.199707 412.614177,299.906741 414.274342,299.320801 C417.423772,298.197748 418.998463,296.110367 418.998463,293.058594 C418.998463,291.276358 418.217221,289.896978 416.654713,288.92041 C415.092205,287.968257 412.638616,287.12598 409.293873,286.393555 L403.580983,285.111816 C397.96572,283.842279 394.083923,282.462898 391.935475,280.973633 C388.297761,278.483386 386.478932,274.589382 386.478932,269.291504 C386.478932,264.457495 388.236727,260.441422 391.752369,257.243164 C395.268012,254.044906 400.431534,252.445801 407.243092,252.445801 C412.931597,252.445801 417.783843,253.953354 421.799977,256.968506 C425.81611,259.983658 427.921802,264.359835 428.117115,270.097168 L417.277272,270.097168 C417.081958,266.850081 415.665957,264.542976 413.029225,263.175781 C411.271403,262.272456 409.086367,261.820801 406.474049,261.820801 C403.568761,261.820801 401.249448,262.406732 399.516041,263.578613 C397.782634,264.750494 396.915944,266.38622 396.915944,268.48584 C396.915944,270.41456 397.770427,271.854976 399.47942,272.807129 C400.578058,273.441898 402.921785,274.186519 406.51067,275.041016 L415.812428,277.274902 C419.889597,278.25147 422.965738,279.557609 425.040944,281.193359 C428.263616,283.732435 429.874928,287.406714 429.874928,292.216309 C429.874928,297.147974 427.98896,301.243392 424.216969,304.502686 C420.444977,307.761979 415.116662,309.391602 408.231861,309.391602 C401.200576,309.391602 395.670846,307.786393 391.642506,304.575928 C387.614166,301.365462 385.600026,296.952665 385.600026,291.337402 L396.366627,291.337402 Z" id="BAR" fill="#FFFFFF" sketch:type="MSShapeGroup"></path>
                <rect id="Rectangle-2" stroke="#FFFFFF" stroke-width="8" sketch:type="MSShapeGroup" x="25" y="25" width="456" height="456"></rect>
            </g>
        </g>
    </g>
</svg>