<?xml version="1.0" encoding="UTF-8" standalone="no"?>
<svg width="506px" height="506px" viewBox="0 0 506 506" version="1.1" xmlns="http://www.w3.org/2000/svg" xmlns:xlink="http://www.w3.org/1999/xlink" xmlns:sketch="http://www.bohemiancoding.com/sketch/ns">
    <!-- Generator: Sketch 3.4 (15575) - http://www.bohemiancoding.com/sketch -->
    <title>Rectangle 1 + BRANDED + Rectangle 2</title>
    <desc>Created with Sketch.</desc>
    <defs></defs>
    <g id="Page-1" stroke="none" stroke-width="1" fill="none" fill-rule="evenodd" sketch:type="MSPage">
        <g id="1024" sketch:type="MSArtboardGroup" transform="translate(-259.000000, -259.000000)">
            <g id="Rectangle-1-+-BRANDED-+-Rectangle-2" sketch:type="MSLayerGroup" transform="translate(259.000000, 259.000000)">
                <rect id="Rectangle-1" fill="#FD6366" sketch:type="MSShapeGroup" x="0" y="0" width="506" height="506"></rect>
                <path d="M170.786722,189.866211 C169.932225,186.179669 167.844844,183.604011 164.524515,182.13916 C162.669037,181.333492 160.606069,180.930664 158.33555,180.930664 C153.989825,180.930664 150.419304,182.572493 147.62388,185.856201 C144.828456,189.139909 143.430765,194.077604 143.430765,200.669434 C143.430765,207.310092 144.944422,212.009752 147.97178,214.768555 C150.999139,217.527358 154.441488,218.906738 158.298929,218.906738 C162.083128,218.906738 165.183682,217.81422 167.600687,215.62915 C170.017691,213.444081 171.506934,210.581561 172.06846,207.041504 L159.580667,207.041504 L159.580667,198.032715 L182.066019,198.032715 L182.066019,227 L174.595316,227 L173.460062,220.261719 C171.287199,222.825208 169.334094,224.631831 167.600687,225.681641 C164.622156,227.512704 160.960083,228.428223 156.614359,228.428223 C149.461003,228.428223 143.601686,225.95022 139.036234,220.994141 C134.275468,216.013647 131.89512,209.202192 131.89512,200.55957 C131.89512,191.819292 134.299881,184.812526 139.109476,179.539062 C143.91907,174.265599 150.27887,171.628906 158.189066,171.628906 C165.049451,171.628906 170.560871,173.368391 174.723489,176.847412 C178.886108,180.326433 181.272559,184.66599 181.882913,189.866211 L170.786722,189.866211 Z M190.847326,173.020508 L202.126623,173.020508 L202.126623,217.29541 L228.860021,217.29541 L228.860021,227 L190.847326,227 L190.847326,173.020508 Z M249.433321,206.602051 L263.12961,206.602051 L256.391329,185.361816 L249.433321,206.602051 Z M250.129122,173.020508 L262.873262,173.020508 L281.989473,227 L269.758028,227 L266.279024,215.903809 L246.39377,215.903809 L242.658419,227 L230.866426,227 L250.129122,173.020508 Z M295.018827,210.337402 C295.360626,212.803235 296.032006,214.646478 297.032988,215.867188 C298.864051,218.088878 302.001227,219.199707 306.444609,219.199707 C309.105755,219.199707 311.266378,218.906741 312.926542,218.320801 C316.075972,217.197748 317.650663,215.110367 317.650663,212.058594 C317.650663,210.276358 316.869421,208.896978 315.306913,207.92041 C313.744406,206.968257 311.290817,206.12598 307.946074,205.393555 L302.233183,204.111816 C296.617921,202.842279 292.736123,201.462898 290.587675,199.973633 C286.949962,197.483386 285.131132,193.589382 285.131132,188.291504 C285.131132,183.457495 286.888927,179.441422 290.40457,176.243164 C293.920212,173.044906 299.083735,171.445801 305.895292,171.445801 C311.583797,171.445801 316.436044,172.953354 320.452177,175.968506 C324.46831,178.983658 326.574002,183.359835 326.769316,189.097168 L315.929472,189.097168 C315.734159,185.850081 314.318157,183.542976 311.681425,182.175781 C309.923604,181.272456 307.738567,180.820801 305.126249,180.820801 C302.220961,180.820801 299.901649,181.406732 298.168242,182.578613 C296.434834,183.750494 295.568144,185.38622 295.568144,187.48584 C295.568144,189.41456 296.422628,190.854976 298.13162,191.807129 C299.230259,192.441898 301.573985,193.186519 305.16287,194.041016 L314.464628,196.274902 C318.541797,197.25147 321.617938,198.557609 323.693144,200.193359 C326.915816,202.732435 328.527128,206.406714 328.527128,211.216309 C328.527128,216.147974 326.641161,220.243392 322.869169,223.502686 C319.097178,226.761979 313.768862,228.391602 306.884062,228.391602 C299.852777,228.391602 294.323047,226.786393 290.294706,223.575928 C286.266366,220.365462 284.252226,215.952665 284.252226,210.337402 L295.018827,210.337402 Z M343.057947,210.337402 C343.399746,212.803235 344.071126,214.646478 345.072107,215.867188 C346.903171,218.088878 350.040347,219.199707 354.483729,219.199707 C357.144875,219.199707 359.305498,218.906741 360.965662,218.320801 C364.115092,217.197748 365.689783,215.110367 365.689783,212.058594 C365.689783,210.276358 364.908541,208.896978 363.346033,207.92041 C361.783525,206.968257 359.329937,206.12598 355.985193,205.393555 L350.272303,204.111816 C344.65704,202.842279 340.775243,201.462898 338.626795,199.973633 C334.989081,197.483386 333.170252,193.589382 333.170252,188.291504 C333.170252,183.457495 334.928047,179.441422 338.44369,176.243164 C341.959332,173.044906 347.122855,171.445801 353.934412,171.445801 C359.622917,171.445801 364.475164,172.953354 368.491297,175.968506 C372.50743,178.983658 374.613122,183.359835 374.808436,189.097168 L363.968592,189.097168 C363.773278,185.850081 362.357277,183.542976 359.720545,182.175781 C357.962724,181.272456 355.777687,180.820801 353.165369,180.820801 C350.260081,180.820801 347.940769,181.406732 346.207361,182.578613 C344.473954,183.750494 343.607264,185.38622 343.607264,187.48584 C343.607264,189.41456 344.461747,190.854976 346.17074,191.807129 C347.269379,192.441898 349.613105,193.186519 353.20199,194.041016 L362.503748,196.274902 C366.580917,197.25147 369.657058,198.557609 371.732264,200.193359 C374.954936,202.732435 376.566248,206.406714 376.566248,211.216309 C376.566248,216.147974 374.680281,220.243392 370.908289,223.502686 C367.136298,226.761979 361.807982,228.391602 354.923182,228.391602 C347.891897,228.391602 342.362167,226.786393 338.333826,223.575928 C334.305486,220.365462 332.291346,215.952665 332.291346,210.337402 L343.057947,210.337402 Z M157.526008,255.020508 L164.667122,285.928711 L166.205208,294.534668 L167.779915,286.111816 L173.859016,255.020508 L185.760872,255.020508 L192.169563,285.928711 L193.817512,294.534668 L195.465461,286.258301 L202.679817,255.020508 L214.142219,255.020508 L198.944465,309 L188.177864,309 L181.659309,277.432617 L179.755012,266.995605 L177.850715,277.432617 L171.332161,309 L160.858528,309 L145.550911,255.020508 L157.526008,255.020508 Z M229.625187,288.602051 L243.321476,288.602051 L236.583195,267.361816 L229.625187,288.602051 Z M230.320988,255.020508 L243.065128,255.020508 L262.181339,309 L249.949894,309 L246.47089,297.903809 L226.585636,297.903809 L222.850284,309 L211.058292,309 L230.320988,255.020508 Z M278.323486,264.395508 L278.323486,278.897461 L291.104248,278.897461 C293.643323,278.897461 295.547601,278.604495 296.817139,278.018555 C299.063244,276.993159 300.186279,274.966812 300.186279,271.939453 C300.186279,268.667952 299.099864,266.470709 296.927002,265.347656 C295.706293,264.712887 293.875256,264.395508 291.433838,264.395508 L278.323486,264.395508 Z M302.511719,256.412109 C304.550303,257.266606 306.277581,258.523917 307.693604,260.184082 C308.865484,261.551276 309.793209,263.064933 310.476807,264.725098 C311.160404,266.385262 311.502197,268.277333 311.502197,270.401367 C311.502197,272.964857 310.855231,275.485583 309.561279,277.963623 C308.267328,280.441663 306.131118,282.193354 303.152588,283.21875 C305.642835,284.219732 307.406733,285.641836 308.444336,287.485107 C309.481939,289.328378 310.000732,292.142071 310.000732,295.92627 L310.000732,299.551758 C310.000732,302.01759 310.098388,303.689937 310.293701,304.568848 C310.586671,305.960456 311.270258,306.985837 312.344482,307.64502 L312.344482,309 L299.929932,309 C299.588133,307.803705 299.343995,306.839359 299.19751,306.106934 C298.90454,304.593254 298.74585,303.042977 298.721436,301.456055 L298.648193,296.438965 C298.599365,292.996565 297.970709,290.701666 296.762207,289.554199 C295.553705,288.406733 293.289323,287.833008 289.968994,287.833008 L278.323486,287.833008 L278.323486,309 L267.300537,309 L267.300537,255.020508 L293.777588,255.020508 C297.561786,255.09375 300.473134,255.557613 302.511719,256.412109 L302.511719,256.412109 Z M359.138485,264.578613 L330.574032,264.578613 L330.574032,276.041016 L356.794735,276.041016 L356.794735,285.416016 L330.574032,285.416016 L330.574032,299.29541 L360.456844,299.29541 L360.456844,309 L319.551083,309 L319.551083,255.020508 L359.138485,255.020508 L359.138485,264.578613 Z" id="GLASS-Copy" fill="#FFFFFF" sketch:type="MSShapeGroup"></path>
                <rect id="Rectangle-2" stroke="#FFFFFF" stroke-width="8" sketch:type="MSShapeGroup" x="25" y="25" width="456" height="456"></rect>
            </g>
        </g>
    </g>
</svg>