<?xml version="1.0" encoding="UTF-8" standalone="no"?>
<svg width="506px" height="506px" viewBox="0 0 506 506" version="1.1" xmlns="http://www.w3.org/2000/svg" xmlns:xlink="http://www.w3.org/1999/xlink" xmlns:sketch="http://www.bohemiancoding.com/sketch/ns">
    <!-- Generator: Sketch 3.4 (15575) - http://www.bohemiancoding.com/sketch -->
    <title>Rectangle 1 + BRANDED + Rectangle 2</title>
    <desc>Created with Sketch.</desc>
    <defs></defs>
    <g id="Page-1" stroke="none" stroke-width="1" fill="none" fill-rule="evenodd" sketch:type="MSPage">
        <g id="1024" sketch:type="MSArtboardGroup" transform="translate(-259.000000, -259.000000)">
            <g id="Rectangle-1-+-BRANDED-+-Rectangle-2" sketch:type="MSLayerGroup" transform="translate(259.000000, 259.000000)">
                <rect id="Rectangle-1" fill="#FD6366" sketch:type="MSShapeGroup" x="0" y="0" width="506" height="506"></rect>
                <path d="M89.1111274,182.395508 L89.1111274,194.297363 L102.367963,194.297363 C104.736139,194.297363 106.658727,193.851811 108.135786,192.960693 C109.612844,192.069576 110.351362,190.488781 110.351362,188.218262 C110.351362,185.703601 109.374809,184.043461 107.421674,183.237793 C105.737096,182.676267 103.58868,182.395508 100.976362,182.395508 L89.1111274,182.395508 Z M89.1111274,203.23291 L89.1111274,217.625 L102.367963,217.625 C104.736139,217.625 106.579383,217.30762 107.897749,216.672852 C110.290339,215.500971 111.486616,213.254899 111.486616,209.93457 C111.486616,207.126939 110.326959,205.198247 108.007612,204.148438 C106.71366,203.562497 104.894831,203.257324 102.551069,203.23291 L89.1111274,203.23291 Z M118.627729,178.77002 C120.287894,181.064953 121.117963,183.811507 121.117963,187.009766 C121.117963,190.305681 120.287894,192.95458 118.627729,194.956543 C117.69999,196.079595 116.332816,197.104976 114.526166,198.032715 C117.284969,199.033696 119.366247,200.620595 120.770063,202.793457 C122.173879,204.966319 122.875776,207.603012 122.875776,210.703613 C122.875776,213.901871 122.07012,216.770495 120.458784,219.30957 C119.433388,220.994149 118.151662,222.410151 116.613569,223.557617 C114.880162,224.875983 112.835504,225.779294 110.479536,226.267578 C108.123567,226.755862 105.566219,227 102.807416,227 L78.3445259,227 L78.3445259,173.020508 L104.565229,173.020508 C111.181473,173.118165 115.868926,175.034649 118.627729,178.77002 L118.627729,178.77002 Z M141.618021,182.395508 L141.618021,196.897461 L154.398782,196.897461 C156.937858,196.897461 158.842135,196.604495 160.111673,196.018555 C162.357778,194.993159 163.480814,192.966812 163.480814,189.939453 C163.480814,186.667952 162.394399,184.470709 160.221536,183.347656 C159.000827,182.712887 157.169791,182.395508 154.728372,182.395508 L141.618021,182.395508 Z M165.806253,174.412109 C167.844838,175.266606 169.572115,176.523917 170.988138,178.184082 C172.160019,179.551276 173.087744,181.064933 173.771341,182.725098 C174.454938,184.385262 174.796732,186.277333 174.796732,188.401367 C174.796732,190.964857 174.149765,193.485583 172.855814,195.963623 C171.561862,198.441663 169.425653,200.193354 166.447122,201.21875 C168.937369,202.219732 170.701267,203.641836 171.73887,205.485107 C172.776473,207.328378 173.295267,210.142071 173.295267,213.92627 L173.295267,217.551758 C173.295267,220.01759 173.392922,221.689937 173.588236,222.568848 C173.881206,223.960456 174.564793,224.985837 175.639017,225.64502 L175.639017,227 L163.224466,227 C162.882667,225.803705 162.638529,224.839359 162.492044,224.106934 C162.199074,222.593254 162.040384,221.042977 162.01597,219.456055 L161.942728,214.438965 C161.893899,210.996565 161.265244,208.701666 160.056741,207.554199 C158.848239,206.406733 156.583858,205.833008 153.263529,205.833008 L141.618021,205.833008 L141.618021,227 L130.595071,227 L130.595071,173.020508 L157.072122,173.020508 C160.856321,173.09375 163.767669,173.557613 165.806253,174.412109 L165.806253,174.412109 Z M197.274328,206.602051 L210.970617,206.602051 L204.232336,185.361816 L197.274328,206.602051 Z M197.970129,173.020508 L210.714269,173.020508 L229.83048,227 L217.599035,227 L214.120031,215.903809 L194.234777,215.903809 L190.499426,227 L178.707434,227 L197.970129,173.020508 Z M234.510225,173.020508 L246.338839,173.020508 L267.835421,210.703613 L267.835421,173.020508 L278.345674,173.020508 L278.345674,227 L267.066378,227 L245.020479,188.657715 L245.020479,227 L234.510225,227 L234.510225,173.020508 Z M297.820341,182.395508 L297.820341,217.625 L308.220732,217.625 C313.543024,217.625 317.253924,215.000515 319.353544,209.751465 C320.501011,206.870591 321.074736,203.44045 321.074736,199.460938 C321.074736,193.967746 320.214149,189.750259 318.492949,186.80835 C316.771749,183.86644 313.347711,182.395508 308.220732,182.395508 L297.820341,182.395508 Z M318.474638,174.192383 C322.258837,175.437506 325.322771,177.720198 327.666533,181.040527 C329.546425,183.726088 330.82815,186.631332 331.511747,189.756348 C332.195345,192.881363 332.537138,195.859849 332.537138,198.691895 C332.537138,205.869665 331.096723,211.948706 328.215849,216.929199 C324.309579,223.6431 318.279366,227 310.125029,227 L286.870634,227 L286.870634,173.020508 L310.125029,173.020508 C313.469772,173.069336 316.252947,173.459957 318.474638,174.192383 L318.474638,174.192383 Z M378.96493,182.578613 L350.400477,182.578613 L350.400477,194.041016 L376.62118,194.041016 L376.62118,203.416016 L350.400477,203.416016 L350.400477,217.29541 L380.283289,217.29541 L380.283289,227 L339.377527,227 L339.377527,173.020508 L378.96493,173.020508 L378.96493,182.578613 Z M398.036764,182.395508 L398.036764,217.625 L408.437155,217.625 C413.759447,217.625 417.470348,215.000515 419.569968,209.751465 C420.717434,206.870591 421.291159,203.44045 421.291159,199.460938 C421.291159,193.967746 420.430572,189.750259 418.709372,186.80835 C416.988172,183.86644 413.564134,182.395508 408.437155,182.395508 L398.036764,182.395508 Z M418.691061,174.192383 C422.47526,175.437506 425.539194,177.720198 427.882956,181.040527 C429.762848,183.726088 431.044574,186.631332 431.728171,189.756348 C432.411768,192.881363 432.753561,195.859849 432.753561,198.691895 C432.753561,205.869665 431.313146,211.948706 428.432272,216.929199 C424.526003,223.6431 418.49579,227 410.341452,227 L387.087057,227 L387.087057,173.020508 L410.341452,173.020508 C413.686195,173.069336 416.469371,173.459957 418.691061,174.192383 L418.691061,174.192383 Z M105.485313,266.189941 C104.008255,264.993646 101.939183,264.395508 99.2780373,264.395508 L88.7677834,264.395508 L88.7677834,280.289062 L99.2780373,280.289062 C101.939183,280.289062 104.008255,279.642096 105.485313,278.348145 C106.962371,277.054193 107.700889,275.003432 107.700889,272.195801 C107.700889,269.38817 106.962371,267.386236 105.485313,266.189941 L105.485313,266.189941 Z M114.036338,285.635742 C110.813666,288.272474 106.211661,289.59082 100.230186,289.59082 L88.7677834,289.59082 L88.7677834,309 L77.5617287,309 L77.5617287,255.020508 L101.072471,255.020508 C106.49242,255.020508 110.813666,256.412095 114.036338,259.195312 C117.25901,261.97853 118.870322,266.287568 118.870322,272.122559 C118.870322,278.494661 117.25901,282.99901 114.036338,285.635742 L114.036338,285.635742 Z M140.368311,288.602051 L154.0646,288.602051 L147.326319,267.361816 L140.368311,288.602051 Z M141.064111,255.020508 L153.808252,255.020508 L172.924463,309 L160.693018,309 L157.214014,297.903809 L137.32876,297.903809 L133.593408,309 L121.801416,309 L141.064111,255.020508 Z M183.582608,255.020508 L194.861904,255.020508 L194.861904,299.29541 L221.595303,299.29541 L221.595303,309 L183.582608,309 L183.582608,255.020508 Z M273.122588,264.578613 L244.558135,264.578613 L244.558135,276.041016 L270.778838,276.041016 L270.778838,285.416016 L244.558135,285.416016 L244.558135,299.29541 L274.440947,299.29541 L274.440947,309 L233.535186,309 L233.535186,255.020508 L273.122588,255.020508 L273.122588,264.578613 Z M326.261201,255.020508 L326.261201,264.578613 L310.111299,264.578613 L310.111299,309 L298.75876,309 L298.75876,264.578613 L282.535615,264.578613 L282.535615,255.020508 L326.261201,255.020508 Z M375.884189,255.020508 L375.884189,264.578613 L359.734287,264.578613 L359.734287,309 L348.381748,309 L348.381748,264.578613 L332.158603,264.578613 L332.158603,255.020508 L375.884189,255.020508 Z M426.202978,264.578613 L397.638525,264.578613 L397.638525,276.041016 L423.859228,276.041016 L423.859228,285.416016 L397.638525,285.416016 L397.638525,299.29541 L427.521338,299.29541 L427.521338,309 L386.615576,309 L386.615576,255.020508 L426.202978,255.020508 L426.202978,264.578613 Z" id="BRANDED" fill="#FFFFFF" sketch:type="MSShapeGroup"></path>
                <rect id="Rectangle-2" stroke="#FFFFFF" stroke-width="8" sketch:type="MSShapeGroup" x="25" y="25" width="456" height="456"></rect>
            </g>
        </g>
    </g>
</svg>