<?xml version="1.0" encoding="UTF-8" standalone="no"?>
<svg width="506px" height="506px" viewBox="0 0 506 506" version="1.1" xmlns="http://www.w3.org/2000/svg" xmlns:xlink="http://www.w3.org/1999/xlink" xmlns:sketch="http://www.bohemiancoding.com/sketch/ns">
    <!-- Generator: Sketch 3.4 (15575) - http://www.bohemiancoding.com/sketch -->
    <title>Rectangle 1 + BRANDED + Rectangle 2</title>
    <desc>Created with Sketch.</desc>
    <defs></defs>
    <g id="Page-1" stroke="none" stroke-width="1" fill="none" fill-rule="evenodd" sketch:type="MSPage">
        <g id="1024" sketch:type="MSArtboardGroup" transform="translate(-259.000000, -259.000000)">
            <g id="Rectangle-1-+-BRANDED-+-Rectangle-2" sketch:type="MSLayerGroup" transform="translate(259.000000, 259.000000)">
                <rect id="Rectangle-1" fill="#FD6366" sketch:type="MSShapeGroup" x="0" y="0" width="506" height="506"></rect>
                <path d="M190.118782,173.020508 L206.341926,173.020508 L206.341926,227 L195.831672,227 L195.831672,190.48877 C195.831672,189.43896 195.843879,187.968027 195.868294,186.075928 C195.892708,184.183828 195.904915,182.725103 195.904915,181.699707 L185.687629,227 L174.737922,227 L164.593879,181.699707 C164.593879,182.725103 164.606086,184.183828 164.630501,186.075928 C164.654915,187.968027 164.667122,189.43896 164.667122,190.48877 L164.667122,227 L154.156868,227 L154.156868,173.020508 L170.563118,173.020508 L180.377571,215.464355 L190.118782,173.020508 Z M254.747257,182.578613 L226.182804,182.578613 L226.182804,194.041016 L252.403507,194.041016 L252.403507,203.416016 L226.182804,203.416016 L226.182804,217.29541 L256.065616,217.29541 L256.065616,227 L215.159855,227 L215.159855,173.020508 L254.747257,173.020508 L254.747257,182.578613 Z M262.686279,173.020508 L274.514893,173.020508 L296.011475,210.703613 L296.011475,173.020508 L306.521729,173.020508 L306.521729,227 L295.242432,227 L273.196533,188.657715 L273.196533,227 L262.686279,227 L262.686279,173.020508 Z M323.213192,210.337402 C323.554991,212.803235 324.226371,214.646478 325.227352,215.867188 C327.058416,218.088878 330.195592,219.199707 334.638973,219.199707 C337.300119,219.199707 339.460742,218.906741 341.120907,218.320801 C344.270337,217.197748 345.845028,215.110367 345.845028,212.058594 C345.845028,210.276358 345.063786,208.896978 343.501278,207.92041 C341.93877,206.968257 339.485181,206.12598 336.140438,205.393555 L330.427548,204.111816 C324.812285,202.842279 320.930488,201.462898 318.78204,199.973633 C315.144326,197.483386 313.325497,193.589382 313.325497,188.291504 C313.325497,183.457495 315.083292,179.441422 318.598934,176.243164 C322.114577,173.044906 327.278099,171.445801 334.089657,171.445801 C339.778162,171.445801 344.630408,172.953354 348.646542,175.968506 C352.662675,178.983658 354.768367,183.359835 354.96368,189.097168 L344.123837,189.097168 C343.928523,185.850081 342.512522,183.542976 339.87579,182.175781 C338.117968,181.272456 335.932932,180.820801 333.320614,180.820801 C330.415326,180.820801 328.096013,181.406732 326.362606,182.578613 C324.629199,183.750494 323.762509,185.38622 323.762509,187.48584 C323.762509,189.41456 324.616992,190.854976 326.325985,191.807129 C327.424623,192.441898 329.76835,193.186519 333.357235,194.041016 L342.658993,196.274902 C346.736162,197.25147 349.812303,198.557609 351.887509,200.193359 C355.110181,202.732435 356.721493,206.406714 356.721493,211.216309 C356.721493,216.147974 354.835525,220.243392 351.063534,223.502686 C347.291542,226.761979 341.963227,228.391602 335.078426,228.391602 C328.047141,228.391602 322.517411,226.786393 318.489071,223.575928 C314.460731,220.365462 312.446591,215.952665 312.446591,210.337402 L323.213192,210.337402 Z M76.0778956,260.660156 C80.4724489,256.216775 86.0632133,253.995117 92.8503566,253.995117 C101.932433,253.995117 108.572992,256.973603 112.772232,262.930664 C115.091579,266.275407 116.336684,269.632307 116.507583,273.001465 L105.228286,273.001465 C104.495861,270.413561 103.555929,268.460456 102.408462,267.14209 C100.357671,264.798328 97.3181502,263.626465 93.2898097,263.626465 C89.1882267,263.626465 85.9533958,265.280501 83.5852199,268.588623 C81.217044,271.896745 80.0329738,276.578095 80.0329738,282.632812 C80.0329738,288.68753 81.284182,293.222397 83.7866359,296.237549 C86.2890898,299.252701 89.4689896,300.760254 93.3264308,300.760254 C97.2815287,300.760254 100.296635,299.466322 102.371841,296.878418 C103.519308,295.486809 104.471447,293.399428 105.228286,290.616211 L116.39772,290.616211 C115.421152,296.500029 112.92484,301.285138 108.908706,304.97168 C104.892573,308.658222 99.7473606,310.501465 93.4729152,310.501465 C85.7092045,310.501465 79.6057499,308.011255 75.1623683,303.030762 C70.7189867,298.025854 68.4973292,291.165571 68.4973292,282.449707 C68.4973292,273.025832 71.0241594,265.762721 76.0778956,260.660156 L76.0778956,260.660156 Z M123.018383,255.020508 L134.29768,255.020508 L134.29768,299.29541 L161.031078,299.29541 L161.031078,309 L123.018383,309 L123.018383,255.020508 Z M201.361458,295.999512 C203.985982,292.703597 205.298225,288.016144 205.298225,281.937012 C205.298225,275.882294 203.985982,271.200944 201.361458,267.892822 C198.736933,264.5847 195.190826,262.930664 190.72303,262.930664 C186.255234,262.930664 182.690817,264.578597 180.02967,267.874512 C177.368524,271.170427 176.037971,275.85788 176.037971,281.937012 C176.037971,288.016144 177.368524,292.703597 180.02967,295.999512 C182.690817,299.295427 186.255234,300.943359 190.72303,300.943359 C195.190826,300.943359 198.736933,299.295427 201.361458,295.999512 L201.361458,295.999512 Z M208.411018,304.202637 C204.333849,308.401876 198.437912,310.501465 190.72303,310.501465 C183.008148,310.501465 177.11221,308.401876 173.035042,304.202637 C167.566264,299.051244 164.831917,291.629443 164.831917,281.937012 C164.831917,272.049267 167.566264,264.627466 173.035042,259.671387 C177.11221,255.472147 183.008148,253.372559 190.72303,253.372559 C198.437912,253.372559 204.333849,255.472147 208.411018,259.671387 C213.855381,264.627466 216.577522,272.049267 216.577522,281.937012 C216.577522,291.629443 213.855381,299.051244 208.411018,304.202637 L208.411018,304.202637 Z M262.419376,255.020508 L262.419376,264.578613 L246.269474,264.578613 L246.269474,309 L234.916935,309 L234.916935,264.578613 L218.69379,264.578613 L218.69379,255.020508 L262.419376,255.020508 Z M266.952637,309 L266.952637,255.020508 L278.12207,255.020508 L278.12207,275.601562 L299.21582,275.601562 L299.21582,255.020508 L310.421875,255.020508 L310.421875,309 L299.21582,309 L299.21582,284.90332 L278.12207,284.90332 L278.12207,309 L266.952637,309 Z M329.530331,309 L318.324276,309 L318.324276,255.020508 L329.530331,255.020508 L329.530331,309 Z M337.872185,255.020508 L349.700798,255.020508 L371.19738,292.703613 L371.19738,255.020508 L381.707634,255.020508 L381.707634,309 L370.428337,309 L348.382439,270.657715 L348.382439,309 L337.872185,309 L337.872185,255.020508 Z M426.524098,271.866211 C425.669601,268.179669 423.58222,265.604011 420.261891,264.13916 C418.406413,263.333492 416.343445,262.930664 414.072926,262.930664 C409.727201,262.930664 406.15668,264.572493 403.361256,267.856201 C400.565832,271.139909 399.168141,276.077604 399.168141,282.669434 C399.168141,289.310092 400.681798,294.009752 403.709156,296.768555 C406.736515,299.527358 410.178864,300.906738 414.036305,300.906738 C417.820503,300.906738 420.921058,299.81422 423.338063,297.62915 C425.755067,295.444081 427.24431,292.581561 427.805836,289.041504 L415.318043,289.041504 L415.318043,280.032715 L437.803395,280.032715 L437.803395,309 L430.332692,309 L429.197438,302.261719 C427.024575,304.825208 425.07147,306.631831 423.338063,307.681641 C420.359532,309.512704 416.697459,310.428223 412.351735,310.428223 C405.198378,310.428223 399.339062,307.95022 394.77361,302.994141 C390.012844,298.013647 387.632496,291.202192 387.632496,282.55957 C387.632496,273.819292 390.037257,266.812526 394.846852,261.539062 C399.656446,256.265599 406.016246,253.628906 413.926442,253.628906 C420.786827,253.628906 426.298247,255.368391 430.460865,258.847412 C434.623484,262.326433 437.009935,266.66599 437.620289,271.866211 L426.524098,271.866211 Z" id="MENS" fill="#FFFFFF" sketch:type="MSShapeGroup"></path>
                <rect id="Rectangle-2" stroke="#FFFFFF" stroke-width="8" sketch:type="MSShapeGroup" x="25" y="25" width="456" height="456"></rect>
            </g>
        </g>
    </g>
</svg>