<?xml version="1.0" encoding="UTF-8" standalone="no"?>
<svg width="506px" height="506px" viewBox="0 0 506 506" version="1.1" xmlns="http://www.w3.org/2000/svg" xmlns:xlink="http://www.w3.org/1999/xlink" xmlns:sketch="http://www.bohemiancoding.com/sketch/ns">
    <!-- Generator: Sketch 3.4 (15575) - http://www.bohemiancoding.com/sketch -->
    <title>Rectangle 1 + BRANDED + Rectangle 2</title>
    <desc>Created with Sketch.</desc>
    <defs></defs>
    <g id="Page-1" stroke="none" stroke-width="1" fill="none" fill-rule="evenodd" sketch:type="MSPage">
        <g id="1024-copy-2" sketch:type="MSArtboardGroup" transform="translate(-259.000000, -259.000000)">
            <g id="Rectangle-1-+-BRANDED-+-Rectangle-2" sketch:type="MSLayerGroup" transform="translate(259.000000, 259.000000)">
                <rect id="Rectangle-1" fill="#33C3F0" sketch:type="MSShapeGroup" x="0" y="0" width="506" height="506"></rect>
                <path d="M204.265079,172.020508 L216.093693,172.020508 L237.590275,209.703613 L237.590275,172.020508 L248.100529,172.020508 L248.100529,226 L236.821232,226 L214.775333,187.657715 L214.775333,226 L204.265079,226 L204.265079,172.020508 Z M291.140869,212.999512 C293.765394,209.703597 295.077637,205.016144 295.077637,198.937012 C295.077637,192.882294 293.765394,188.200944 291.140869,184.892822 C288.516344,181.5847 284.970237,179.930664 280.502441,179.930664 C276.034646,179.930664 272.470228,181.578597 269.809082,184.874512 C267.147936,188.170427 265.817383,192.85788 265.817383,198.937012 C265.817383,205.016144 267.147936,209.703597 269.809082,212.999512 C272.470228,216.295427 276.034646,217.943359 280.502441,217.943359 C284.970237,217.943359 288.516344,216.295427 291.140869,212.999512 L291.140869,212.999512 Z M298.19043,221.202637 C294.113261,225.401876 288.217324,227.501465 280.502441,227.501465 C272.787559,227.501465 266.891622,225.401876 262.814453,221.202637 C257.345676,216.051244 254.611328,208.629443 254.611328,198.937012 C254.611328,189.049267 257.345676,181.627466 262.814453,176.671387 C266.891622,172.472147 272.787559,170.372559 280.502441,170.372559 C288.217324,170.372559 294.113261,172.472147 298.19043,176.671387 C303.634793,181.627466 306.356934,189.049267 306.356934,198.937012 C306.356934,208.629443 303.634793,216.051244 298.19043,221.202637 L298.19043,221.202637 Z M151.084573,308 L139.878519,308 L139.878519,254.020508 L151.084573,254.020508 L151.084573,308 Z M195.388342,254.020508 L211.611486,254.020508 L211.611486,308 L201.101232,308 L201.101232,271.48877 C201.101232,270.43896 201.113439,268.968027 201.137853,267.075928 C201.162268,265.183828 201.174475,263.725103 201.174475,262.699707 L190.957189,308 L180.007482,308 L169.863439,262.699707 C169.863439,263.725103 169.875646,265.183828 169.90006,267.075928 C169.924475,268.968027 169.936682,270.43896 169.936682,271.48877 L169.936682,308 L159.426428,308 L159.426428,254.020508 L175.832678,254.020508 L185.647131,296.464355 L195.388342,254.020508 Z M234.858126,287.602051 L248.554415,287.602051 L241.816133,266.361816 L234.858126,287.602051 Z M235.553926,254.020508 L248.298067,254.020508 L267.414278,308 L255.182833,308 L251.703829,296.903809 L231.818575,296.903809 L228.083223,308 L216.291231,308 L235.553926,254.020508 Z M308.568632,270.866211 C307.714136,267.179669 305.626754,264.604011 302.306425,263.13916 C300.450947,262.333492 298.387979,261.930664 296.11746,261.930664 C291.771735,261.930664 288.201215,263.572493 285.40579,266.856201 C282.610366,270.139909 281.212675,275.077604 281.212675,281.669434 C281.212675,288.310092 282.726332,293.009752 285.753691,295.768555 C288.78105,298.527358 292.223398,299.906738 296.080839,299.906738 C299.865038,299.906738 302.965593,298.81422 305.382597,296.62915 C307.799601,294.444081 309.288844,291.581561 309.85037,288.041504 L297.362577,288.041504 L297.362577,279.032715 L319.847929,279.032715 L319.847929,308 L312.377226,308 L311.241972,301.261719 C309.06911,303.825208 307.116004,305.631831 305.382597,306.681641 C302.404067,308.512704 298.741994,309.428223 294.396269,309.428223 C287.242913,309.428223 281.383596,306.95022 276.818144,301.994141 C272.057378,297.013647 269.677031,290.202192 269.677031,281.55957 C269.677031,272.819292 272.081792,265.812526 276.891386,260.539062 C281.70098,255.265599 288.06078,252.628906 295.970976,252.628906 C302.831362,252.628906 308.342781,254.368391 312.5054,257.847412 C316.668018,261.326433 319.054469,265.66599 319.664824,270.866211 L308.568632,270.866211 Z M368.546229,263.578613 L339.981775,263.578613 L339.981775,275.041016 L366.202479,275.041016 L366.202479,284.416016 L339.981775,284.416016 L339.981775,298.29541 L369.864588,298.29541 L369.864588,308 L328.958826,308 L328.958826,254.020508 L368.546229,254.020508 L368.546229,263.578613 Z" id="NO" fill="#FFFFFF" sketch:type="MSShapeGroup"></path>
                <rect id="Rectangle-2" stroke="#FFFFFF" stroke-width="8" sketch:type="MSShapeGroup" x="25" y="25" width="456" height="456"></rect>
            </g>
        </g>
    </g>
</svg>