<?xml version="1.0" encoding="UTF-8" standalone="no"?>
<svg width="23px" height="21px" viewBox="0 0 23 21" version="1.1" xmlns="http://www.w3.org/2000/svg" xmlns:xlink="http://www.w3.org/1999/xlink" xmlns:sketch="http://www.bohemiancoding.com/sketch/ns">
    <!-- Generator: Sketch 3.4 (15575) - http://www.bohemiancoding.com/sketch -->
    <title>Shape</title>
    <desc>Created with Sketch.</desc>
    <defs></defs>
    <g id="Page-1" stroke="none" stroke-width="1" fill="none" fill-rule="evenodd" sketch:type="MSPage">
        <path d="M16.627565,19.6372741 C16.627565,20.3802771 17.2297541,20.982 17.9722909,20.982 C18.7148276,20.982 19.3170168,20.3802771 19.3170168,19.6372741 C19.3170168,18.8947374 18.7148276,18.2927814 17.9722909,18.2927814 C17.2297541,18.2927814 16.627565,18.8947374 16.627565,19.6372741 L16.627565,19.6372741 Z M4.20936644,19.6372741 C4.20936644,20.3802771 4.81132245,20.982 5.5538592,20.982 C6.29639595,20.982 6.89835195,20.3802771 6.89835195,19.6372741 C6.89835195,18.8947374 6.29616281,18.2927814 5.5538592,18.2927814 C4.81132245,18.2927814 4.20936644,18.8947374 4.20936644,19.6372741 L4.20936644,19.6372741 Z M21.6525688,5.12761647 L20.7832063,8.29289792 L19.3955835,8.29289792 L19.3955835,5.12761647 L21.6525688,5.12761647 L21.6525688,5.12761647 Z M18.3868059,12.0540739 L16.6835175,12.3284744 L16.6835175,9.3012092 L18.3868059,9.3012092 L18.3868059,12.0540739 L18.3868059,12.0540739 Z M18.3868059,8.29289792 L16.6835175,8.29289792 L16.6835175,5.12761647 L18.3868059,5.12761647 L18.3868059,8.29289792 L18.3868059,8.29289792 Z M15.6752063,12.4909699 L13.9719179,12.7653704 L13.9719179,9.3012092 L15.6752063,9.3012092 L15.6752063,12.4909699 L15.6752063,12.4909699 Z M15.6752063,8.29289792 L13.9719179,8.29289792 L13.9719179,5.12761647 L15.6752063,5.12761647 L15.6752063,8.29289792 L15.6752063,8.29289792 Z M12.9661711,12.9271665 L11.2605514,13.2022665 L11.2605514,9.3012092 L12.9638397,9.3012092 L12.9638397,12.9033867 C12.9636066,12.9117796 12.9657048,12.9192399 12.9661711,12.9271665 L12.9661711,12.9271665 Z M12.9636066,8.29289792 L11.2603182,8.29289792 L11.2603182,5.12761647 L12.9636066,5.12761647 L12.9636066,8.29289792 L12.9636066,8.29289792 Z M10.2520069,13.364762 L8.54895169,13.6391625 L8.54895169,9.3012092 L10.2520069,9.3012092 L10.2520069,13.364762 L10.2520069,13.364762 Z M10.2520069,8.29289792 L8.54895169,8.29289792 L8.54895169,5.12761647 L10.2520069,5.12761647 L10.2520069,8.29289792 L10.2520069,8.29289792 Z M7.54064041,13.8014249 L6.83796984,13.9144956 L5.85949991,9.3012092 L7.54064041,9.3012092 L7.54064041,13.8014249 L7.54064041,13.8014249 Z M7.54064041,8.29289792 L5.64571461,8.29289792 L4.9742842,5.12761647 L7.54064041,5.12761647 L7.54064041,8.29289792 L7.54064041,8.29289792 Z M19.3953503,9.3012092 L20.5060081,9.3012092 L19.812663,11.8242022 L19.3953503,11.8915784 L19.3953503,9.3012092 L19.3953503,9.3012092 Z M22.7147344,4.31770354 C22.6193819,4.19274289 22.4713409,4.11930519 22.3137412,4.11930519 L4.76026576,4.11930519 L4.17952509,1.38159434 C4.13033349,1.14869192 3.92447479,0.982 3.68621025,0.982 L0.941272209,0.982 C0.662908354,0.982 0.437,1.20767522 0.437,1.48627221 C0.437,1.7648692 0.662675219,1.99054442 0.941272209,1.99054442 L3.27798989,1.99054442 L5.84131534,14.0753591 L5.0784958,14.1982216 C4.15294764,14.3150225 3.45960249,15.0969591 3.45960249,16.0350966 C3.45960249,17.0301192 4.24806694,17.8421303 5.23283154,17.884561 C5.24938416,17.8864261 5.26570365,17.8894568 5.28272255,17.8894568 L19.5967795,17.8894568 C19.8751433,17.8894568 20.1010517,17.6637816 20.1010517,17.3854178 C20.1010517,17.1070539 19.8751433,16.8811456 19.5967795,16.8811456 L5.33377923,16.8811456 C5.32678517,16.8809124 5.32002423,16.8790473 5.31303017,16.8790473 C4.8476916,16.8790473 4.46931259,16.5004352 4.46931259,16.0350966 C4.46931259,15.602397 4.79313788,15.2417363 5.22234044,15.1960418 L20.2929222,12.7679349 C20.4880567,12.7366948 20.646822,12.5944821 20.6990444,12.4037772 L22.800062,4.7566978 C22.8417933,4.60515969 22.8100868,4.44289734 22.7147344,4.31770354 L22.7147344,4.31770354 Z" id="Shape" fill="#000000" sketch:type="MSShapeGroup"></path>
    </g>
</svg>