<?xml version="1.0" encoding="UTF-8" standalone="no"?>
<svg width="506px" height="506px" viewBox="0 0 506 506" version="1.1" xmlns="http://www.w3.org/2000/svg" xmlns:xlink="http://www.w3.org/1999/xlink" xmlns:sketch="http://www.bohemiancoding.com/sketch/ns">
    <!-- Generator: Sketch 3.4 (15575) - http://www.bohemiancoding.com/sketch -->
    <title>Rectangle 1 + BRANDED + Rectangle 2</title>
    <desc>Created with Sketch.</desc>
    <defs></defs>
    <g id="Page-1" stroke="none" stroke-width="1" fill="none" fill-rule="evenodd" sketch:type="MSPage">
        <g id="1024" sketch:type="MSArtboardGroup" transform="translate(-259.000000, -259.000000)">
            <g id="Rectangle-1-+-BRANDED-+-Rectangle-2" sketch:type="MSLayerGroup" transform="translate(259.000000, 259.000000)">
                <rect id="Rectangle-1" fill="#FD6366" sketch:type="MSShapeGroup" x="0" y="0" width="506" height="506"></rect>
                <rect id="Rectangle-2" stroke="#FFFFFF" stroke-width="8" sketch:type="MSShapeGroup" x="25" y="25" width="456" height="456"></rect>
                <path d="M99.123119,172.020508 L106.264232,202.928711 L107.802318,211.534668 L109.377025,203.111816 L115.456127,172.020508 L127.357982,172.020508 L133.766674,202.928711 L135.414623,211.534668 L137.062572,203.258301 L144.276928,172.020508 L155.73933,172.020508 L140.541576,226 L129.774974,226 L123.25642,194.432617 L121.352123,183.995605 L119.447826,194.432617 L112.929271,226 L102.455639,226 L87.1480213,172.020508 L99.123119,172.020508 Z M195.08094,212.999512 C197.705465,209.703597 199.017708,205.016144 199.017708,198.937012 C199.017708,192.882294 197.705465,188.200944 195.08094,184.892822 C192.456415,181.5847 188.910308,179.930664 184.442512,179.930664 C179.974716,179.930664 176.410299,181.578597 173.749153,184.874512 C171.088007,188.170427 169.757454,192.85788 169.757454,198.937012 C169.757454,205.016144 171.088007,209.703597 173.749153,212.999512 C176.410299,216.295427 179.974716,217.943359 184.442512,217.943359 C188.910308,217.943359 192.456415,216.295427 195.08094,212.999512 L195.08094,212.999512 Z M202.130501,221.202637 C198.053332,225.401876 192.157395,227.501465 184.442512,227.501465 C176.72763,227.501465 170.831693,225.401876 166.754524,221.202637 C161.285747,216.051244 158.551399,208.629443 158.551399,198.937012 C158.551399,189.049267 161.285747,181.627466 166.754524,176.671387 C170.831693,172.472147 176.72763,170.372559 184.442512,170.372559 C192.157395,170.372559 198.053332,172.472147 202.130501,176.671387 C207.574864,181.627466 210.297004,189.049267 210.297004,198.937012 C210.297004,208.629443 207.574864,216.051244 202.130501,221.202637 L202.130501,221.202637 Z M252.696476,172.020508 L268.91962,172.020508 L268.91962,226 L258.409366,226 L258.409366,189.48877 C258.409366,188.43896 258.421573,186.968027 258.445988,185.075928 C258.470402,183.183828 258.482609,181.725103 258.482609,180.699707 L248.265324,226 L237.315616,226 L227.171574,180.699707 C227.171574,181.725103 227.18378,183.183828 227.208195,185.075928 C227.232609,186.968027 227.244816,188.43896 227.244816,189.48877 L227.244816,226 L216.734562,226 L216.734562,172.020508 L233.140812,172.020508 L242.955265,214.464355 L252.696476,172.020508 Z M317.324951,181.578613 L288.760498,181.578613 L288.760498,193.041016 L314.981201,193.041016 L314.981201,202.416016 L288.760498,202.416016 L288.760498,216.29541 L318.643311,216.29541 L318.643311,226 L277.737549,226 L277.737549,172.020508 L317.324951,172.020508 L317.324951,181.578613 Z M325.263973,172.020508 L337.092587,172.020508 L358.589169,209.703613 L358.589169,172.020508 L369.099423,172.020508 L369.099423,226 L357.820126,226 L335.774227,187.657715 L335.774227,226 L325.263973,226 L325.263973,172.020508 Z M385.790886,209.337402 C386.132685,211.803235 386.804065,213.646478 387.805046,214.867188 C389.63611,217.088878 392.773286,218.199707 397.216667,218.199707 C399.877814,218.199707 402.038436,217.906741 403.698601,217.320801 C406.848031,216.197748 408.422722,214.110367 408.422722,211.058594 C408.422722,209.276358 407.64148,207.896978 406.078972,206.92041 C404.516464,205.968257 402.062876,205.12598 398.718132,204.393555 L393.005242,203.111816 C387.389979,201.842279 383.508182,200.462898 381.359734,198.973633 C377.72202,196.483386 375.903191,192.589382 375.903191,187.291504 C375.903191,182.457495 377.660986,178.441422 381.176628,175.243164 C384.692271,172.044906 389.855794,170.445801 396.667351,170.445801 C402.355856,170.445801 407.208102,171.953354 411.224236,174.968506 C415.240369,177.983658 417.346061,182.359835 417.541374,188.097168 L406.701531,188.097168 C406.506217,184.850081 405.090216,182.542976 402.453484,181.175781 C400.695663,180.272456 398.510626,179.820801 395.898308,179.820801 C392.99302,179.820801 390.673707,180.406732 388.9403,181.578613 C387.206893,182.750494 386.340203,184.38622 386.340203,186.48584 C386.340203,188.41456 387.194686,189.854976 388.903679,190.807129 C390.002317,191.441898 392.346044,192.186519 395.934929,193.041016 L405.236687,195.274902 C409.313856,196.25147 412.389997,197.557609 414.465203,199.193359 C417.687875,201.732435 419.299187,205.406714 419.299187,210.216309 C419.299187,215.147974 417.413219,219.243392 413.641228,222.502686 C409.869236,225.761979 404.540921,227.391602 397.656121,227.391602 C390.624835,227.391602 385.095106,225.786393 381.066765,222.575928 C377.038425,219.365462 375.024285,214.952665 375.024285,209.337402 L385.790886,209.337402 Z M76.0778956,259.660156 C80.4724489,255.216775 86.0632133,252.995117 92.8503566,252.995117 C101.932433,252.995117 108.572992,255.973603 112.772232,261.930664 C115.091579,265.275407 116.336684,268.632307 116.507583,272.001465 L105.228286,272.001465 C104.495861,269.413561 103.555929,267.460456 102.408462,266.14209 C100.357671,263.798328 97.3181502,262.626465 93.2898097,262.626465 C89.1882267,262.626465 85.9533958,264.280501 83.5852199,267.588623 C81.217044,270.896745 80.0329738,275.578095 80.0329738,281.632812 C80.0329738,287.68753 81.284182,292.222397 83.7866359,295.237549 C86.2890898,298.252701 89.4689896,299.760254 93.3264308,299.760254 C97.2815287,299.760254 100.296635,298.466322 102.371841,295.878418 C103.519308,294.486809 104.471447,292.399428 105.228286,289.616211 L116.39772,289.616211 C115.421152,295.500029 112.92484,300.285138 108.908706,303.97168 C104.892573,307.658222 99.7473606,309.501465 93.4729152,309.501465 C85.7092045,309.501465 79.6057499,307.011255 75.1623683,302.030762 C70.7189867,297.025854 68.4973292,290.165571 68.4973292,281.449707 C68.4973292,272.025832 71.0241594,264.762721 76.0778956,259.660156 L76.0778956,259.660156 Z M123.018383,254.020508 L134.29768,254.020508 L134.29768,298.29541 L161.031078,298.29541 L161.031078,308 L123.018383,308 L123.018383,254.020508 Z M201.361458,294.999512 C203.985982,291.703597 205.298225,287.016144 205.298225,280.937012 C205.298225,274.882294 203.985982,270.200944 201.361458,266.892822 C198.736933,263.5847 195.190826,261.930664 190.72303,261.930664 C186.255234,261.930664 182.690817,263.578597 180.02967,266.874512 C177.368524,270.170427 176.037971,274.85788 176.037971,280.937012 C176.037971,287.016144 177.368524,291.703597 180.02967,294.999512 C182.690817,298.295427 186.255234,299.943359 190.72303,299.943359 C195.190826,299.943359 198.736933,298.295427 201.361458,294.999512 L201.361458,294.999512 Z M208.411018,303.202637 C204.333849,307.401876 198.437912,309.501465 190.72303,309.501465 C183.008148,309.501465 177.11221,307.401876 173.035042,303.202637 C167.566264,298.051244 164.831917,290.629443 164.831917,280.937012 C164.831917,271.049267 167.566264,263.627466 173.035042,258.671387 C177.11221,254.472147 183.008148,252.372559 190.72303,252.372559 C198.437912,252.372559 204.333849,254.472147 208.411018,258.671387 C213.855381,263.627466 216.577522,271.049267 216.577522,280.937012 C216.577522,290.629443 213.855381,298.051244 208.411018,303.202637 L208.411018,303.202637 Z M262.419376,254.020508 L262.419376,263.578613 L246.269474,263.578613 L246.269474,308 L234.916935,308 L234.916935,263.578613 L218.69379,263.578613 L218.69379,254.020508 L262.419376,254.020508 Z M266.952637,308 L266.952637,254.020508 L278.12207,254.020508 L278.12207,274.601562 L299.21582,274.601562 L299.21582,254.020508 L310.421875,254.020508 L310.421875,308 L299.21582,308 L299.21582,283.90332 L278.12207,283.90332 L278.12207,308 L266.952637,308 Z M329.530331,308 L318.324276,308 L318.324276,254.020508 L329.530331,254.020508 L329.530331,308 Z M337.872185,254.020508 L349.700798,254.020508 L371.19738,291.703613 L371.19738,254.020508 L381.707634,254.020508 L381.707634,308 L370.428337,308 L348.382439,269.657715 L348.382439,308 L337.872185,308 L337.872185,254.020508 Z M426.524098,270.866211 C425.669601,267.179669 423.58222,264.604011 420.261891,263.13916 C418.406413,262.333492 416.343445,261.930664 414.072926,261.930664 C409.727201,261.930664 406.15668,263.572493 403.361256,266.856201 C400.565832,270.139909 399.168141,275.077604 399.168141,281.669434 C399.168141,288.310092 400.681798,293.009752 403.709156,295.768555 C406.736515,298.527358 410.178864,299.906738 414.036305,299.906738 C417.820503,299.906738 420.921058,298.81422 423.338063,296.62915 C425.755067,294.444081 427.24431,291.581561 427.805836,288.041504 L415.318043,288.041504 L415.318043,279.032715 L437.803395,279.032715 L437.803395,308 L430.332692,308 L429.197438,301.261719 C427.024575,303.825208 425.07147,305.631831 423.338063,306.681641 C420.359532,308.512704 416.697459,309.428223 412.351735,309.428223 C405.198378,309.428223 399.339062,306.95022 394.77361,301.994141 C390.012844,297.013647 387.632496,290.202192 387.632496,281.55957 C387.632496,272.819292 390.037257,265.812526 394.846852,260.539062 C399.656446,255.265599 406.016246,252.628906 413.926442,252.628906 C420.786827,252.628906 426.298247,254.368391 430.460865,257.847412 C434.623484,261.326433 437.009935,265.66599 437.620289,270.866211 L426.524098,270.866211 Z" id="WOMENS" fill="#FFFFFF" sketch:type="MSShapeGroup"></path>
            </g>
        </g>
    </g>
</svg>